<?xml version="1.0" standalone="no"?>
<!DOCTYPE svg PUBLIC "-//W3C//DTD SVG 20010904//EN"
 "http://www.w3.org/TR/2001/REC-SVG-20010904/DTD/svg10.dtd">
<svg version="1.0" xmlns="http://www.w3.org/2000/svg"
 width="366.000000pt" height="1280.000000pt" viewBox="0 0 366.000000 1280.000000"
 preserveAspectRatio="xMidYMid meet">
<metadata>
Created by potrace 1.15, written by Peter Selinger 2001-2017
</metadata>
<g transform="translate(0.000000,1280.000000) scale(0.100000,-0.100000)"
fill="#e91e63" stroke="none">
<path d="M1551 12759 c-177 -34 -362 -209 -425 -400 -14 -42 -29 -109 -32
-148 -9 -93 -17 -103 -90 -108 -268 -18 -374 -45 -514 -131 -184 -113 -366
-366 -421 -585 -30 -119 -38 -420 -15 -538 69 -341 194 -637 396 -934 149
-217 418 -517 651 -726 184 -164 261 -261 302 -379 21 -62 22 -82 22 -370 l0
-305 45 -84 45 -83 0 -202 c-1 -217 -6 -246 -62 -330 -53 -82 -49 -125 21
-228 24 -35 49 -82 55 -104 7 -25 15 -316 21 -834 12 -865 26 -1648 40 -2135
15 -501 42 -2074 58 -3330 8 -576 9 -602 29 -646 27 -59 73 -94 153 -115 115
-29 232 -3 271 60 14 22 19 51 19 101 1 110 16 211 37 252 26 50 81 80 158 87
77 7 566 43 755 56 504 34 508 34 535 73 12 17 15 61 15 232 0 236 -6 260 -69
302 -31 21 -45 23 -165 23 -225 -1 -448 -16 -489 -34 -40 -16 -59 -48 -72
-118 -19 -102 -132 -120 -179 -29 -8 15 -20 66 -26 114 -14 104 -8 417 9 470
16 51 49 70 122 71 69 1 89 -14 89 -70 0 -43 39 -88 96 -110 40 -15 72 -16
282 -11 272 7 336 16 372 52 l25 26 0 212 c0 194 -2 215 -20 246 -11 19 -33
43 -48 55 -27 20 -40 21 -215 19 -103 -1 -304 -7 -447 -14 -143 -6 -357 -12
-475 -13 -248 -1 -257 1 -292 82 -24 53 -21 -16 -38 1047 -15 905 -38 2268
-50 2860 -14 710 -13 1045 3 1081 6 16 25 51 41 77 38 64 38 113 0 168 -89
126 -104 181 -104 381 0 149 16 211 78 307 23 35 44 78 48 97 3 18 -2 77 -12
131 -14 73 -19 143 -19 273 1 162 3 180 26 240 39 102 91 171 269 355 302 311
408 438 568 678 189 284 291 506 366 802 l50 200 0 160 c-2 189 -23 311 -85
475 -80 215 -255 408 -450 500 -108 50 -208 71 -364 76 -198 7 -181 -1 -188
96 -6 93 -48 228 -92 299 -15 24 -59 74 -97 111 -137 134 -345 201 -517 167z
m321 -146 c98 -49 178 -122 221 -201 41 -77 77 -189 77 -243 0 -64 -24 -90
-198 -220 -75 -57 -158 -122 -184 -146 -26 -24 -54 -43 -63 -43 -25 0 -136 59
-195 104 -30 23 -80 57 -110 76 -30 18 -87 58 -127 87 l-71 53 -8 67 c-17 162
60 333 196 437 81 62 135 77 266 74 108 -3 113 -4 196 -45z m739 -923 c116
-36 203 -122 279 -275 73 -146 101 -307 81 -460 -14 -100 -88 -332 -156 -485
-96 -218 -243 -457 -398 -650 -166 -206 -463 -505 -582 -586 -72 -49 -130 -48
-211 4 -172 111 -524 445 -697 660 -119 148 -292 403 -345 509 -94 188 -161
410 -177 588 -18 202 58 440 181 563 91 91 184 133 307 139 119 6 204 -13 319
-74 147 -78 212 -134 321 -278 54 -73 112 -138 130 -149 56 -33 77 -19 174
111 107 143 174 211 265 270 186 121 361 159 509 113z"/>
</g>
</svg>
